<?xml version="1.0" encoding="iso-8859-1"?>
<!-- Generator: Adobe Illustrator 19.0.0, SVG Export Plug-In . SVG Version: 6.00 Build 0)  -->
<svg version="1.1" id="Capa_1" xmlns="http://www.w3.org/2000/svg" xmlns:xlink="http://www.w3.org/1999/xlink" x="0px" y="0px"
	 viewBox="0 0 512 512" style="enable-background:new 0 0 512 512;" xml:space="preserve">
<g>
	<path style="fill:#A2E8F9;" d="M413.892,327.81h5.54c2.4,0,4.754,0.188,7.052,0.545c-15.28-88.85-93.111-156.684-186.55-156.684
		c-104.371,0-189.282,84.628-189.282,188.649v73.503c0,3.049,2.48,5.522,5.54,5.522h312.27v-66.258
		C368.463,348.081,388.802,327.81,413.892,327.81z"/>
	<path style="fill:#A2E8F9;" d="M253.23,373.087c0-9.415,2.885-18.156,7.819-25.399H51.079c-0.279,4.176-0.426,8.388-0.426,12.633
		v32.644H253.23V373.087z"/>
</g>
<path style="fill:#FFFFFF;" d="M81.567,257.134c-9.165,13.928-16.54,29.127-21.779,45.277h360.291
	c-5.239-16.15-12.613-31.349-21.779-45.277H81.567z"/>
<path style="fill:#02BFE9;" d="M356.55,211.857H123.317c-16.258,12.715-30.395,28.01-41.759,45.276h316.751
	C386.945,239.867,372.809,224.573,356.55,211.857z"/>
<g style="opacity:0.1;">
	<path d="M82,433.824v-73.503c0-98.761,76.543-180.029,173.608-187.998c-5.17-0.425-10.395-0.652-15.674-0.652
		c-104.371,0-189.282,84.628-189.282,188.649v73.503c0,3.049,2.48,5.522,5.54,5.522H87.54C84.48,439.345,82,436.873,82,433.824z"/>
</g>
<rect x="92.57" y="392.96" style="fill:#02BFE9;" width="82.33" height="46.38"/>
<g>
	<path style="fill:#FFFFFF;" d="M356.55,211.857h-39.056v45.276h80.815C386.945,239.867,372.809,224.573,356.55,211.857z"/>
	<rect x="123.25" y="347.69" style="fill:#FFFFFF;" width="82.33" height="45.28"/>
</g>
<g>
	<rect x="118.05" y="257.13" style="fill:#A2E8F9;" width="82.33" height="45.28"/>
	<rect x="280.93" y="257.13" style="fill:#A2E8F9;" width="82.33" height="45.28"/>
</g>
<g>
	<path style="fill:#FFFFFF;" d="M298.658,327.81h23.609v-25.4h-82.334v45.277h21.115C269.22,335.692,283.015,327.81,298.658,327.81z
		"/>
	<rect x="79.27" y="302.41" style="fill:#FFFFFF;" width="82.33" height="45.28"/>
	<path style="fill:#FFFFFF;" d="M413.892,327.81H298.658c-25.089,0-45.428,20.271-45.428,45.277v66.258h115.233v-66.258
		C368.463,348.081,388.802,327.81,413.892,327.81z"/>
</g>
<path style="fill:#A2E8F9;" d="M413.892,327.81h-33.24c-25.089,0-45.429,20.271-45.429,45.277v66.258h33.24v-66.258
	C368.463,348.081,388.802,327.81,413.892,327.81z"/>
<path style="fill:#02BFE9;" d="M339.655,327.81h-40.997c-25.089,0-45.428,20.271-45.428,45.277v66.258h40.997v-66.258
	C294.227,348.081,314.565,327.81,339.655,327.81z"/>
<path style="fill:#FFFFFF;" d="M419.432,327.81h-5.54c-25.089,0-45.429,20.271-45.429,45.277v66.258h96.397v-66.258
	C464.86,348.081,444.521,327.81,419.432,327.81z"/>
<path style="fill:#0481BF;" d="M390.623,439.345v-66.258c0-12.788,10.438-23.191,23.269-23.191h5.54
	c12.83,0,23.268,10.403,23.268,23.191v66.258H390.623z"/>
<g style="opacity:0.1;">
	<path d="M426.85,351.111c-2.331-0.784-4.825-1.215-7.418-1.215h-5.54c-12.831,0-23.269,10.403-23.269,23.191v66.258H411v-66.258
		C411,362.884,417.647,354.206,426.85,351.111z"/>
</g>
<rect x="160.16" y="211.86" style="fill:#FFFFFF;" width="82.33" height="45.28"/>
<g>
	<ellipse style="fill:#A2E8F9;" cx="97.14" cy="37.908" rx="15.1" ry="15.09"/>
	<ellipse style="fill:#A2E8F9;" cx="416.11" cy="22.589" rx="15.1" ry="15.09"/>
</g>
<ellipse style="fill:#FFFFFF;" cx="40.94" cy="164.31" rx="15.1" ry="15.09"/>
<ellipse style="fill:#A2E8F9;" cx="461.12" cy="183.45" rx="15.1" ry="15.09"/>
<ellipse style="fill:#FFFFFF;" cx="290.49" cy="103.94" rx="15.1" ry="15.09"/>
<path d="M490.344,431.845H472.36v-58.758c0-24.443-16.753-45.052-39.41-51.025c-17.904-89.905-97.642-157.89-193.016-157.89
	c-108.506,0-196.782,87.992-196.782,196.149v71.524H21.656c-4.142,0-7.5,3.358-7.5,7.5s3.358,7.5,7.5,7.5H196
	c4.142,0,7.5-3.358,7.5-7.5s-3.358-7.5-7.5-7.5h-13.598v-31.381h63.328v31.381H233c-4.142,0-7.5,3.358-7.5,7.5s3.358,7.5,7.5,7.5
	h257.344c4.142,0,7.5-3.358,7.5-7.5C497.844,435.203,494.486,431.845,490.344,431.845z M65.322,309.911h6.451v30.277H59.281
	C60.439,329.808,62.475,319.69,65.322,309.911z M58.23,355.188h57.522v30.277h-57.6C58.152,385.464,58.182,356.894,58.23,355.188z
	 M86.772,340.188v-30.277h67.334v30.277H86.772z M355.764,294.911H288.43v-30.277h67.333v30.277H355.764z M417.223,320.31h-3.332
	h-84.124v-10.4h84.778C415.543,313.335,416.427,316.806,417.223,320.31z M330.33,356.752h-24.87
	c6.128-12.674,19.153-21.442,34.195-21.442h4.088C337.673,341.207,333.019,348.538,330.33,356.752z M298.658,335.31h4.088
	c-6.069,5.897-10.724,13.228-13.413,21.442h-24.871C270.591,344.078,283.616,335.31,298.658,335.31z M309.995,249.634h-60.004
	v-30.276h60.004V249.634z M273.43,264.634v30.277h-65.544v-30.277h34.605H273.43z M192.886,294.911h-67.333v-30.277h67.333V294.911z
	 M169.106,309.911h63.328v30.277h-63.328V309.911z M247.434,309.911h67.334v10.4h-16.109c-16.714,0-31.634,7.774-41.341,19.877
	h-9.883L247.434,309.911L247.434,309.911z M260.73,373.087c0-0.448,0.018-0.891,0.034-1.335h25.997
	c-0.011,0.445-0.034,0.887-0.034,1.335v25.629H260.73V373.087z M301.727,373.087c0-0.448,0.018-0.891,0.034-1.335h25.996
	c-0.011,0.445-0.034,0.887-0.034,1.335v25.629h-25.996V373.087z M360.963,373.087v25.629h-18.24v-25.629
	c0-0.448,0.019-0.891,0.034-1.335h18.24C360.986,372.197,360.963,372.639,360.963,373.087z M327.723,413.716v18.129h-25.996v-18.129
	H327.723z M342.723,413.716h18.24v18.129h-18.24V413.716z M363.57,356.752h-17.115c5.595-11.572,16.94-19.888,30.322-21.246
	C370.807,341.369,366.229,348.63,363.57,356.752z M409.448,294.911h-38.684v-30.277h23.452
	C400.195,274.172,405.31,284.299,409.448,294.911z M383.729,249.634h-58.734v-30.276h28.969
	C365.025,228.261,375.021,238.425,383.729,249.634z M239.934,179.171c33.699,0,65.278,9.196,92.363,25.186H222
	c-4.142,0-7.5,3.358-7.5,7.5s3.358,7.5,7.5,7.5h12.991v30.276h-67.334v-30.276H186c4.142,0,7.5-3.358,7.5-7.5s-3.358-7.5-7.5-7.5
	h-38.43C174.656,188.368,206.235,179.171,239.934,179.171z M125.904,219.357h26.753v30.276h-34.604H96.139
	C104.847,238.425,114.843,228.261,125.904,219.357z M85.651,264.634h24.901v30.277H70.419
	C74.557,284.299,79.673,274.172,85.651,264.634z M58.152,400.464h26.916v31.381H58.152V400.464z M100.068,431.845v-31.381h67.333
	v31.381H100.068z M198.085,385.464h-67.333v-30.277h67.333L198.085,385.464L198.085,385.464z M213.085,385.464v-30.277h35.784
	c-2.028,5.592-3.139,11.618-3.139,17.899v12.378L213.085,385.464L213.085,385.464z M260.73,413.716h25.997v18.129H260.73V413.716z
	 M450.2,431.845V420c0-4.142-3.358-7.5-7.5-7.5s-7.5,3.358-7.5,7.5v11.845h-37.077v-58.758c0-8.652,7.074-15.691,15.769-15.691h5.54
	c8.694,0,15.768,7.039,15.768,15.691V387c0,4.142,3.358,7.5,7.5,7.5s7.5-3.358,7.5-7.5v-13.913
	c0-16.923-13.802-30.691-30.768-30.691h-5.54c-16.966,0-30.769,13.768-30.769,30.691v58.758h-7.16v-58.758
	c0-20.83,17.015-37.777,37.929-37.777h5.54c20.914,0,37.928,16.947,37.928,37.777v58.758H450.2z"/>
<path d="M237.042,497H135.669c-4.142,0-7.5,3.358-7.5,7.5s3.358,7.5,7.5,7.5h101.373c4.142,0,7.5-3.358,7.5-7.5
	S241.185,497,237.042,497z"/>
<path d="M378.304,497H276.931c-4.142,0-7.5,3.358-7.5,7.5s3.358,7.5,7.5,7.5h101.373c4.142,0,7.5-3.358,7.5-7.5
	S382.446,497,378.304,497z"/>
<path d="M133.498,471.371c0-4.142-3.358-7.5-7.5-7.5H81.056c-4.142,0-7.5,3.358-7.5,7.5s3.358,7.5,7.5,7.5h44.942
	C130.14,478.871,133.498,475.513,133.498,471.371z"/>
<path d="M273.593,471.371c0-4.142-3.358-7.5-7.5-7.5H164.72c-4.142,0-7.5,3.358-7.5,7.5s3.358,7.5,7.5,7.5h101.373
	C270.235,478.871,273.593,475.513,273.593,471.371z"/>
<path d="M355.22,478.871c4.142,0,7.5-3.358,7.5-7.5s-3.358-7.5-7.5-7.5h-44.942c-4.142,0-7.5,3.358-7.5,7.5s3.358,7.5,7.5,7.5
	H355.22z"/>
<path d="M432.917,463.871h-44.942c-4.142,0-7.5,3.358-7.5,7.5s3.358,7.5,7.5,7.5h44.942c4.142,0,7.5-3.358,7.5-7.5
	C440.417,467.228,437.059,463.871,432.917,463.871z"/>
<path d="M97.136,60.497c12.46,0,22.597-10.133,22.597-22.589s-10.137-22.59-22.597-22.59c-12.459,0-22.596,10.134-22.596,22.59
	C74.54,50.363,84.676,60.497,97.136,60.497z M97.136,30.318c4.189,0,7.597,3.405,7.597,7.59s-3.408,7.589-7.597,7.589
	c-4.188,0-7.596-3.404-7.596-7.589S92.947,30.318,97.136,30.318z"/>
<path d="M416.108,45.178c12.46,0,22.596-10.133,22.596-22.589S428.567,0,416.108,0c-12.46,0-22.597,10.133-22.597,22.589
	C393.511,35.044,403.648,45.178,416.108,45.178z M416.108,15c4.188,0,7.596,3.404,7.596,7.589c0,4.184-3.407,7.589-7.596,7.589
	s-7.597-3.404-7.597-7.589S411.919,15,416.108,15z"/>
<path d="M40.94,186.903c12.46,0,22.597-10.133,22.597-22.589c0-12.456-10.137-22.59-22.597-22.59
	c-12.459,0-22.596,10.134-22.596,22.59C18.344,176.77,28.481,186.903,40.94,186.903z M40.94,156.725c4.189,0,7.597,3.405,7.597,7.59
	c0,4.184-3.408,7.589-7.597,7.589c-4.188,0-7.596-3.404-7.596-7.589C33.344,160.129,36.752,156.725,40.94,156.725z"/>
<path d="M461.121,206.037c12.459,0,22.595-10.133,22.595-22.589c0-12.456-10.136-22.59-22.595-22.59
	c-12.46,0-22.597,10.134-22.597,22.59C438.524,195.904,448.661,206.037,461.121,206.037z M461.121,175.858
	c4.188,0,7.595,3.405,7.595,7.59s-3.407,7.589-7.595,7.589c-4.189,0-7.597-3.404-7.597-7.589S456.932,175.858,461.121,175.858z"/>
<path d="M290.487,126.526c12.459,0,22.596-10.133,22.596-22.589s-10.136-22.59-22.596-22.59c-12.46,0-22.597,10.134-22.597,22.59
	S278.027,126.526,290.487,126.526z M290.487,96.348c4.188,0,7.596,3.405,7.596,7.59c0,4.185-3.407,7.589-7.596,7.589
	s-7.597-3.404-7.597-7.589C282.89,99.752,286.298,96.348,290.487,96.348z"/>
<g>
</g>
<g>
</g>
<g>
</g>
<g>
</g>
<g>
</g>
<g>
</g>
<g>
</g>
<g>
</g>
<g>
</g>
<g>
</g>
<g>
</g>
<g>
</g>
<g>
</g>
<g>
</g>
<g>
</g>
</svg>
